P3
# a piet program tabularecta.ppm
22 6
255
255   0   0  255   0   0  255   0   0  192   0   0    0   0 192  255   0 255 
192   0 192  192   0   0    0   0 192    0 255 255    0   0   0  255 255 255 
255 255 255  255 255 255  255 255 255  255 255 255  255 255 255  255 255 255 
255 255 255  255 255 255  255 255 255  255 255 255  255   0   0  255   0   0 
255   0   0  255 255 255  255 255 255    0   0   0  255   0 255  255 255 255 
255 255 255  255 255 255    0   0   0  255 255 255  255 255 255  255 255 255 
255 255 255  255 255 255  255 255 255  255 255 255  255 255 255  255 255 255 
255 255 255  255 255 255  255   0   0  255   0   0  255 255 255  255 255 255 
255 255 255  255 255 255  255 255 255  255 255 255  255 255 255    0   0   0 
255 255 255  255 255 255  255 255 255  255 255 255  255 255 255  255 255 255 
255 255 255  255 255 255  255 255 255  255 255 255  255 255 255  255 255 255 
255 255 255  255 255 255  255 255 255  255 255 255  255 255 255  255 255 255 
255 255 255  255 255 255  255 255 255  255 255 255  255 255 255  255 255 255 
255 255 255  255 255 255  255 255 255  255 255 255  255 255 255  255 255 255 
255 255 255  255 255 255  255 255 255  255 255 255  255 255 255  255 255 255 
255 255 255  255 255 255  255 255 255  255 255 255  255 255 255  255 255 255 
255 255 255  255 255 255  255 255 255  255 255 255  255 255 255  255 255 255 
255 255 255  255 255 255  255 255 255  255 255 255  255 255 255  255 255 255 
255 255 255  255 255 255  255 255 255  255 255 255  255 255 255  255 255 255 
255 255 255  255 255 255  255 255 255  255 255 255  255 255 255  255 255 255 
255 255 255  255 255 255  255 255 255  255 255 255  255 255 255  255 255 255 
255 255 255  255 255 255  255 255 255  255 255 255  255 255 255  255 255 255 

